<?xml version="1.0" encoding="UTF-8" standalone="no"?>
<!DOCTYPE svg PUBLIC "-//W3C//DTD SVG 20010904//EN"
"http://www.w3.org/TR/2001/REC-SVG-20010904/DTD/svg10.dtd">
<!-- Created with Inkscape (http://www.inkscape.org/) -->
<svg
   id="svg679"
   sodipodi:version="0.32"
   width="210mm"
   height="297mm"
   sodipodi:docname="citris-misc.svg"
   xmlns="http://www.w3.org/2000/svg"
   xmlns:sodipodi="http://sodipodi.sourceforge.net/DTD/sodipodi-0.dtd"
   xmlns:xlink="http://www.w3.org/1999/xlink"
   xmlns:inkscape="http://www.inkscape.org/namespaces/inkscape"
   inkscape:version="0.37"
   sodipodi:docbase="/home/mattias/projects/citris/citris-cvs/data">
  <defs
     id="defs681">
    <linearGradient
       id="linearGradient779">
      <stop
         style="stop-color:#000;stop-opacity:1;"
         offset="0"
         id="stop780" />
      <stop
         style="stop-color:#fff;stop-opacity:1;"
         offset="1"
         id="stop781" />
    </linearGradient>
    <linearGradient
       xlink:href="#linearGradient779"
       id="linearGradient782" />
    <linearGradient
       xlink:href="#linearGradient779"
       id="linearGradient783" />
  </defs>
  <sodipodi:namedview
     id="base"
     pagecolor="#ffffff"
     inkscape:zoom="1.73419382"
     inkscape:cx="194.520788"
     inkscape:cy="505.006512"
     inkscape:window-width="661"
     inkscape:window-height="822"
     inkscape:window-x="69"
     inkscape:window-y="78" />
  <rect
     style="font-size:12.000;fill:#000000;fill-rule:evenodd;stroke-width:1;fill-opacity:1.0000;"
     id="rect675"
     width="257.5000"
     height="110.0000"
     x="133.7500"
     y="68.61215" />
  <rect
     style="font-size:12.000;fill:#000000;fill-rule:evenodd;stroke-width:1;fill-opacity:1.0000;"
     id="rect599"
     width="688.9710"
     height="436.2395"
     x="-1.564739"
     y="201.9594" />
  <a
     id="a651"
     transform="translate(-23.06547,20.18229)">
    <rect
       style="font-size:12.000;fill:#00004a;fill-opacity:0.556400;fill-rule:evenodd;stroke:#000000;stroke-width:1.632721;"
       id="rect603"
       width="928.9711"
       height="344.8952"
       x="-54.47890"
       y="221.1448" />
  </a>
  <path
     style="font-size:12.000;fill:#8cff00;fill-rule:evenodd;"
     d="M 242.0427 381.1230 L 235.1885 385.0044 L 229.4963 390.0314 L 237.5488 398.1333 L 241.8090 394.5588 L 246.4060 391.9709 L 242.0427 381.1230 z "
     id="path609"
     sodipodi:nodetypes="ccccccc" />
  <path
     style="font-size:12.000;fill:#8cff00;fill-rule:evenodd;"
     d="M 394.4021 381.1231 L 387.5479 385.0045 L 381.8557 390.0315 L 389.9082 398.1334 L 394.1684 394.5589 L 398.7655 391.9710 L 394.4021 381.1231 z "
     id="path610"
     sodipodi:nodetypes="ccccccc" />
  <g
     id="g4142">
    <path
       style="font-size:12;fill:#8cff00;fill-rule:evenodd;"
       d="M 275.6227 429.2740 L 267.1017 439.7842 L 260.7580 451.8197 L 274.1705 457.6656 L 279.4432 447.8496 L 285.9593 439.6430 L 275.6227 429.2740 z "
       id="path597"
       sodipodi:nodetypes="ccccccc"
       transform="matrix(0.722404,0.000000,0.000000,0.722399,-78.40968,87.70715)" />
    <path
       style="font-size:12;fill:#8cff00;fill-rule:evenodd;"
       d="M 303.7124 427.4188 L 294.2244 432.7917 L 286.3449 439.7505 L 297.4917 450.9657 L 303.3890 446.0176 L 309.7525 442.4353 L 303.7124 427.4188 z "
       id="path596"
       sodipodi:nodetypes="ccccccc"
       transform="matrix(0.722404,0.000000,0.000000,0.722399,-78.40968,87.70715)" />
    <path
       style="font-size:12;fill:#8cff00;fill-rule:evenodd;"
       d="M 274.1198 457.4947 L 271.1349 467.9819 L 270.4089 478.4692 L 286.2205 478.6305 L 286.9465 470.9667 L 288.9633 463.9483 L 274.1198 457.4947 z "
       id="path594"
       sodipodi:nodetypes="ccccccc"
       transform="matrix(0.722404,0.000000,0.000000,0.722399,-78.40968,87.70715)" />
    <path
       style="font-size:12;fill:#8cff00;fill-rule:evenodd;"
       d="M 286.1655 439.6008 L 279.2811 448.0563 L 274.4719 457.4041 L 288.9341 463.7976 L 292.6282 457.0436 L 297.2531 451.3924 L 286.1655 439.6008 z "
       id="path595"
       sodipodi:nodetypes="ccccccc"
       transform="matrix(0.722404,0.000000,0.000000,0.722399,-78.40968,87.70715)" />
    <path
       sodipodi:type="arc"
       style="font-size:12;fill:none;fill-rule:evenodd;stroke:#403f3f;stroke-width:27.2561;"
       id="path694"
       d="M 682.5000 412.3622 A 322.5000 322.5000 0 1 "
       sodipodi:cx="360.000000"
       sodipodi:cy="412.362183"
       sodipodi:rx="322.500000"
       sodipodi:ry="322.500000"
       transform="matrix(3.210306e-2,0.000000,0.000000,3.210283e-2,144.8145,419.9317)" />
    <path
       sodipodi:type="arc"
       style="font-size:12;fill:none;fill-rule:evenodd;stroke:#403f3f;stroke-width:1.45692;"
       id="path693"
       d="M 388.7500 648.6122 A 116.2500 116.2500 0 1 "
       sodipodi:cx="272.500000"
       sodipodi:cy="648.612183"
       sodipodi:rx="116.250000"
       sodipodi:ry="116.250000"
       transform="matrix(0.600584,0.000000,0.000000,0.600579,-7.287554,43.62632)" />
    <path
       style="font-size:12;fill:none;fill-rule:evenodd;stroke:#403f3f;stroke-width:3.5716;"
       d="M 355 504.8621 L 355 784.8619 "
       id="path696"
       transform="matrix(0.212374,0.000000,0.000000,0.212372,80.97887,336.3040)" />
    <path
       style="font-size:12;fill:none;fill-rule:evenodd;stroke:#403f3f;stroke-width:3.5716;"
       d="M 388.7901 491.1521 L 586.5770 688.9390 "
       id="path697"
       transform="matrix(0.212374,0.000000,0.000000,0.212372,80.97887,336.3040)" />
    <path
       style="font-size:12;fill:none;fill-rule:evenodd;stroke:#403f3f;stroke-width:3.5716;"
       d="M 403.9035 457.3620 L 682.4990 457.3620 "
       id="path698"
       transform="matrix(0.212374,0.000000,0.000000,0.212372,80.97887,336.3040)" />
    <path
       style="font-size:12;fill:none;fill-rule:evenodd;stroke:#403f3f;stroke-width:3.5716;"
       d="M 390.3891 421.9728 L 588.6466 223.7153 "
       id="path699"
       transform="matrix(0.212374,0.000000,0.000000,0.212372,80.97887,336.3040)" />
    <path
       style="font-size:12;fill:none;fill-rule:evenodd;stroke:#403f3f;stroke-width:3.5716;"
       d="M 374.2624 410.8585 L 481.0613 153.0242 "
       id="path700"
       transform="matrix(0.212374,0.000000,0.000000,0.212372,80.97887,336.3040)" />
    <path
       style="font-size:12;fill:none;fill-rule:evenodd;stroke:#403f3f;stroke-width:3.5716;"
       d="M 480.3290 759.9330 L 373.0098 500.8420 "
       id="path701"
       transform="matrix(0.212374,0.000000,0.000000,0.212372,80.97887,336.3040)" />
    <path
       style="font-size:12;fill:none;fill-rule:evenodd;stroke:#403f3f;stroke-width:3.5716;"
       d="M 657.5710 582.6910 L 399.6727 475.8665 "
       id="path702"
       sodipodi:insensitive="1"
       transform="matrix(0.212374,0.000000,0.000000,0.212372,80.97887,336.3040)" />
    <path
       style="font-size:12;fill:none;fill-rule:evenodd;stroke:#403f3f;stroke-width:3.5716;"
       d="M 659.6396 331.1757 L 400.9371 438.3345 "
       id="path703"
       transform="matrix(0.212374,0.000000,0.000000,0.212372,80.97887,336.3040)" />
    <path
       sodipodi:type="arc"
       style="font-size:12;fill:none;fill-rule:evenodd;stroke:#403f3f;stroke-width:1.71825;"
       id="path600"
       d="M 388.7500 648.6122 A 116.2500 116.2500 0 1 "
       sodipodi:cx="272.500000"
       sodipodi:cy="648.612183"
       sodipodi:rx="116.250000"
       sodipodi:ry="116.250000"
       transform="matrix(0.509240,0.000000,0.000000,0.509236,17.60356,102.8725)" />
    <path
       sodipodi:type="arc"
       style="font-size:12;fill:none;fill-rule:evenodd;stroke:#403f3f;stroke-width:2.02736;"
       id="path601"
       d="M 388.7500 648.6122 A 116.2500 116.2500 0 1 "
       sodipodi:cx="272.500000"
       sodipodi:cy="648.612183"
       sodipodi:rx="116.250000"
       sodipodi:ry="116.250000"
       transform="matrix(0.431598,0.000000,0.000000,0.431595,38.76103,153.2317)" />
    <path
       style="font-size:12;fill:none;fill-rule:evenodd;stroke:#403f3f;stroke-width:2.57162;"
       d="M 388.75 648.61218 C 388.75 712.78218 336.67 764.86218 272.5 764.86218 C 208.33 764.86218 156.25 712.78218 156.25 648.61218 C 156.25 584.44218 208.33 532.36218 272.5 532.36218 C 336.67 532.36218 388.75 584.44218 388.75 648.61218 z "
       id="path4141"
       transform="matrix(0.340254,0.000000,0.000000,0.340252,63.65214,212.4778)" />
    <path
       sodipodi:type="arc"
       style="font-size:12;fill:none;fill-rule:evenodd;stroke:#403f3f;stroke-width:3.64924;"
       id="path603"
       d="M 388.7500 648.6122 A 116.2500 116.2500 0 1 "
       sodipodi:cx="272.500000"
       sodipodi:cy="648.612183"
       sodipodi:rx="116.250000"
       sodipodi:ry="116.250000"
       transform="matrix(0.239777,0.000000,0.000000,0.239775,91.03235,277.6486)" />
    <path
       style="font-size:12;fill:none;fill-rule:evenodd;stroke:#403f3f;stroke-width:3.5716;"
       d="M 355 126.2386 L 355 406.7910 "
       id="path620"
       transform="matrix(0.212374,0.000000,0.000000,0.212372,80.97887,336.3040)" />
    <path
       style="font-size:12;fill:none;fill-rule:evenodd;stroke:#403f3f;stroke-width:3.5716;"
       d="M 335.7029 410.7753 L 228.5726 152.1403 "
       id="path621"
       transform="matrix(0.212374,0.000000,0.000000,0.212372,80.97887,336.3040)" />
    <path
       style="font-size:12;fill:none;fill-rule:evenodd;stroke:#403f3f;stroke-width:3.5716;"
       d="M 122.3882 224.7500 L 319.8932 422.2551 "
       id="path622"
       transform="matrix(0.212374,0.000000,0.000000,0.212372,80.97887,336.3040)" />
    <path
       style="font-size:12;fill:none;fill-rule:evenodd;stroke:#403f3f;stroke-width:3.5716;"
       d="M 229.6710 759.9319 L 336.7075 501.5241 "
       id="path623"
       transform="matrix(0.212374,0.000000,0.000000,0.212372,80.97887,336.3040)" />
    <path
       style="font-size:12;fill:none;fill-rule:evenodd;stroke:#403f3f;stroke-width:3.5716;"
       d="M 123.4230 688.9389 L 320.8579 491.5040 "
       id="path624"
       transform="matrix(0.212374,0.000000,0.000000,0.212372,80.97887,336.3040)" />
    <path
       style="font-size:12;fill:none;fill-rule:evenodd;stroke:#403f3f;stroke-width:3.5716;"
       d="M 310.3774 475.8458 L 52.42930 582.6920 "
       id="path625"
       transform="matrix(0.212374,0.000000,0.000000,0.212372,80.97887,336.3040)" />
    <path
       style="font-size:12;fill:none;fill-rule:evenodd;stroke:#403f3f;stroke-width:3.5716;"
       d="M 309.3420 438.4505 L 51.39406 331.6054 "
       id="path626"
       transform="matrix(0.212374,0.000000,0.000000,0.212372,80.97887,336.3040)" />
    <path
       style="font-size:12;fill:none;fill-rule:evenodd;stroke:#403f3f;stroke-width:3.5716;"
       d="M 27.50070 457.3620 L 306.3310 457.3620 "
       id="path627"
       transform="matrix(0.212374,0.000000,0.000000,0.212372,80.97887,336.3040)" />
    <path
       sodipodi:type="arc"
       style="font-size:12;fill:none;fill-rule:evenodd;stroke:#403f3f;stroke-width:5.2489;"
       id="path628"
       d="M 388.7500 648.6122 A 116.2500 116.2500 0 1 "
       sodipodi:cx="272.500000"
       sodipodi:cy="648.612183"
       sodipodi:rx="116.250000"
       sodipodi:ry="116.250000"
       transform="matrix(0.166702,0.000000,0.000000,0.166701,110.9453,325.0455)" />
  </g>
  <path
     style="font-size:12;font-weight:normal;stroke-width:1pt;font-family:URW Gothic L;fill:#ffffff;fill-opacity:1.0000;"
     d="M 203.3848 464.8646 C 197.7496 471.9538 194.4776 475.5895 189.9336 479.0432 C 181.0265 486.1324 168.8476 490.1318 156.6675 490.1318 C 125.5838 490.1318 99.95167 464.3189 99.95167 432.8707 C 99.95167 400.5141 124.4926 375.7925 156.4855 375.7925 C 168.1199 375.7925 179.0268 378.8835 187.9339 384.8814 C 193.9330 388.6990 197.5686 392.6983 202.6582 400.6960 L 217.7454 400.6960 C 207.3842 377.6103 183.7527 363.4318 155.9410 363.4318 C 115.9492 363.4318 86.31862 393.2440 86.31862 433.4164 C 86.31862 472.6803 116.6766 502.4885 156.8493 502.4885 C 184.1164 502.4885 204.8388 489.7680 218.2911 464.8646 L 203.3848 464.8646 z M 237.5593 388.6990 L 237.5593 388.6990 z M 237.5593 500.1292 L 251.0115 500.1292 L 251.0115 400.6960 L 237.5593 400.6960 L 237.5593 500.1292 z M 286.0945 500.1292 L 299.5467 500.1292 L 299.5467 412.8760 L 321.9051 412.8760 L 321.9051 400.6960 L 299.5467 400.6960 L 299.5467 365.7952 L 286.0945 365.7952 L 286.0945 400.6960 L 264.6446 400.6960 L 264.6446 412.8760 L 286.0945 412.8760 L 286.0945 500.1292 z M 335.5391 500.1292 L 348.9904 500.1292 L 348.9904 442.1416 C 348.9904 423.6008 358.4431 413.4206 377.1657 411.6028 L 377.1657 398.3336 C 362.8052 399.0602 354.2618 403.9688 348.9904 414.8747 L 348.9904 400.6960 L 335.5391 400.6960 L 335.5391 500.1292 z M 390.2542 388.6990 L 390.2542 388.6990 z M 390.2542 500.1292 L 403.7054 500.1292 L 403.7054 400.6960 L 390.2542 400.6960 L 390.2542 500.1292 z M 418.4299 470.8626 C 418.6116 490.1318 431.3362 502.4885 450.4227 502.4885 C 468.2370 502.4885 480.7799 489.7680 480.7799 471.5901 C 480.7799 459.4112 475.1455 451.0487 463.5112 446.1410 C 448.4242 439.9611 447.6966 439.5973 444.7885 438.1433 C 438.6075 435.0523 435.6994 430.8721 435.6994 425.0549 C 435.6994 417.0562 442.0613 410.6943 450.0600 410.6943 C 458.7852 410.6943 463.8749 415.7840 464.6015 425.2368 L 478.2355 425.2368 C 477.6899 409.2404 466.2384 398.3336 450.2409 398.3336 C 434.0635 398.3336 422.0653 410.1488 422.0653 426.3271 C 422.0653 433.4164 424.6107 439.5973 429.5183 444.1413 C 433.6997 447.9587 433.8816 447.9587 447.8785 453.7759 C 453.8764 456.1383 458.2395 458.3198 460.7849 459.9558 C 464.7833 462.6830 467.1467 467.4089 467.1467 472.8623 C 467.1467 482.8606 460.0573 490.1318 450.4227 490.1318 C 439.3350 490.1318 432.4265 483.0414 431.7001 470.8626 L 418.4299 470.8626 z "
     id="path685"
     sodipodi:nodetypes="ccccccccccccccccccccccccccccccccccccccccccccccccccccccccccccccccccc" />
  <rect
     style="font-size:12.000;fill:#808080;fill-rule:evenodd;"
     id="rect618"
     width="387.0457"
     height="74.17249"
     x="260"
     y="737.7759"
     ry="37.0862427" />
  <text
     style="fill:#ffffff;stroke:none;font-family:URW Gothic L;font-style:normal;font-weight:normal;font-size:12;text-anchor:start;writing-mode:lr;fill-opacity:1.0000;stroke-opacity:1;stroke-width:1pt;stroke-linejoin:miter;stroke-linecap:butt;"
     x="108.581115"
     y="81.7065367"
     id="text668"
     transform="scale(1.301387,1.301387)"><tspan
       id="tspan669"
       style="fill:#ffffff;fill-opacity:1.0000;">Score</tspan><tspan
       sodipodi:role="line"
       id="tspan671"
       x="108.581116"
       y="93.7065353"
       style="fill:#ffffff;fill-opacity:1.0000;">Level</tspan><tspan
       sodipodi:role="line"
       id="tspan673"
       x="108.581116"
       y="105.706535"
       style="fill:#ffffff;fill-opacity:1.0000;">Lines</tspan></text>
  <text
     style="fill:#ffffff;stroke:none;font-family:Winks;font-style:normal;font-weight:normal;font-size:12;text-anchor:start;writing-mode:lr;fill-opacity:1.0000;stroke-opacity:1;stroke-width:1pt;stroke-linejoin:miter;stroke-linecap:butt;"
     x="204.632558"
     y="81.7062850"
     id="text690"
     transform="scale(1.301387,1.301387)"
     sodipodi:linespacing="100%"><tspan
       x="204.632553"
       y="81.7062836"
       sodipodi:role="line"
       id="tspan733">Score</tspan><tspan
       x="204.632553"
       y="93.7062836"
       sodipodi:role="line"
       id="tspan735">Level</tspan><tspan
       x="204.632553"
       y="105.706284"
       sodipodi:role="line"
       id="tspan737">Lines</tspan></text>
  <rect
     style="font-size:12.000;fill:#808080;fill-rule:evenodd;stroke-width:1;"
     id="rect650"
     width="227.5000"
     height="85"
     x="32.50000"
     y="732.3622"
     sodipodi:insensitive="1" />
</svg>
